<svg xmlns="http://www.w3.org/2000/svg" width="122" height="79.1" viewBox="0 0 122 79.1">
  <path id="paintball" d="M122,47.516V42.037a1.317,1.317,0,0,0-.43-.951l-8.181-7.827a2,2,0,0,0-1.376-.517H82.778V27.735A11.824,11.824,0,0,0,90.856,23.3l5.626-3.646.03-.046c.01-.015.022-.03.032-.046l2.166-3.523a1.219,1.219,0,0,0,.1-1.12l-.721-1.761a1.608,1.608,0,0,0-.906-.849L80.817,5.654a2.18,2.18,0,0,0-1.44-.062l-1.926.587a1.73,1.73,0,0,0-.98.718L74.8,9.608h-8.99a1.663,1.663,0,0,0-1.8,1.468,1.663,1.663,0,0,0,1.8,1.468h9.676l16.9,6.961-4.641,2.3a8.354,8.354,0,0,1-6.727,3.115H58.147a14.935,14.935,0,0,1-6.338-1.387L47.933,21.7c-2.4-1.134-3.9.824-3.9-1.435V14.989a2.775,2.775,0,0,1,3.008-2.446H57.391a1.662,1.662,0,0,0,1.8-1.467,1.663,1.663,0,0,0-1.8-1.468H47.044c-3.649,0-6.618,2.414-6.618,5.381v5.276c0,3.3,2.183,2.317,5.7,3.974L50,26.067a19.21,19.21,0,0,0,8.149,1.783h11.4v4.893H36.456a4.1,4.1,0,0,0-4.125,2.739H27.312a1.663,1.663,0,0,0-1.8,1.468,1.663,1.663,0,0,0,1.8,1.468h4.932v4.892H3.61V38.417H18.89a1.663,1.663,0,0,0,1.8-1.468,1.663,1.663,0,0,0-1.8-1.468H1.805A1.663,1.663,0,0,0,0,36.949v7.827a1.663,1.663,0,0,0,1.8,1.468H32.33a4.1,4.1,0,0,0,4.125,2.739h3.008v3.5a1.463,1.463,0,0,0-.962,1.3V71.39a1.663,1.663,0,0,0,1.8,1.468h9.625a1.663,1.663,0,0,0,1.8-1.468V53.778a1.464,1.464,0,0,0-.962-1.3v-3.5H67.329l2.487,7.282c1.369,4.009,5.9,6.808,11.013,6.808h10.29l4.117,12.719H92.763a1.662,1.662,0,0,0-1.8,1.468v5.871a1.662,1.662,0,0,0,1.8,1.467H120.2a1.662,1.662,0,0,0,1.8-1.467V77.26a1.662,1.662,0,0,0-1.8-1.468h-1.977l-3.864-11.937H120.2a1.662,1.662,0,0,0,1.8-1.468V59.453a1.227,1.227,0,0,0-.074-.416l-3.649-10.054H120.2a1.662,1.662,0,0,0,1.8-1.468ZM79.383,8.725l.525-.16,14.99,6.1.249.607-1.02,1.659-15.79-6.5ZM73.152,27.85h6.017v4.892H73.152ZM35.854,45.56V36.167a.555.555,0,0,1,.6-.489H47.164V46.049H36.456a.556.556,0,0,1-.6-.49Zm11.31,3.424v3.327H43.074V48.984Zm.962,20.938H42.111V55.246h6.016Zm32.7-9.784c-3.5,0-6.6-1.915-7.535-4.657l-2.219-6.5h6.452l3.806,3.4v3.346a1.844,1.844,0,0,0,3.61,0V51.822a1.328,1.328,0,0,0-.469-.987L82.4,48.984H86.56l3.61,11.154Zm37.562,21.526H94.568V78.728h23.824v2.935ZM98.968,75.793,97.2,70.313h3.991a1.5,1.5,0,1,0,0-2.935H96.245L95.3,64.444h3.965a1.5,1.5,0,1,0,0-2.935H94.345l-.039-.123a1.265,1.265,0,0,0-.1-.306l-3.914-12.1H105.81l8.676,26.809Zm19.423-16.128v1.256h-4.985l-3.863-11.937h4.972Zm0-13.616H50.774V35.677h39.7v2.25a1.844,1.844,0,0,0,3.61,0v-2.25h2.887v2.25a1.844,1.844,0,0,0,3.61,0v-2.25h2.887v2.25a1.844,1.844,0,0,0,3.61,0v-2.25h4.1l7.211,6.9Zm0,0" transform="translate(0 -5.499)" fill="#fff"/>
</svg>
