<svg xmlns="http://www.w3.org/2000/svg" width="122" height="79" viewBox="0 0 122 79">
  <g id="swimming-figure" transform="translate(0 -165.145)">
    <g id="Group_53" data-name="Group 53" transform="translate(0.001 165.145)">
      <path id="Path_38" data-name="Path 38" d="M70.57,181.778,98.8,185.407c.985,2.5,5.95,14.816,6.883,17.019h-.013Q93.4,208.493,81.134,214.546a47.874,47.874,0,0,1,8.607-.778,45.026,45.026,0,0,1,11.031,1.348c7.142,1.815,13.6,4.718,19.832,7.531,5.561,2.5,10.823,4.874,16.073,6.235.739.194,1.452.363,2.165.505-6.222-12.742-22.956-47.078-26.261-54.635-1.555-3.565-3.694-4.887-6.727-5.276L72.7,165.213a8.351,8.351,0,1,0-2.126,16.565Z" transform="translate(-55.071 -165.145)" fill="#fff"/>
      <path id="Path_39" data-name="Path 39" d="M2.162,593.852a5.139,5.139,0,0,0,3.02.972,3.85,3.85,0,0,0,.674-.052,5.186,5.186,0,0,0,3.539-2.113A29.4,29.4,0,0,1,24,582.276a33.986,33.986,0,0,1,10.668-1.737c12.923,0,24.006,7.725,35.671,12.171A55.181,55.181,0,0,0,90.2,596.859a42.446,42.446,0,0,0,9.268-1.024,35.716,35.716,0,0,0,18.652-10.253,29.561,29.561,0,0,0,3.02-3.837,5.183,5.183,0,0,0-1.465-7.181,5.129,5.129,0,0,0-2.852-.855,5.183,5.183,0,0,0-4.329,2.32,18.962,18.962,0,0,1-1.322,1.763,24.914,24.914,0,0,1-13.934,7.92,36.545,36.545,0,0,1-16.617-.544c-5.574-1.452-10.966-3.876-16.7-6.455-6.092-2.735-12.379-5.574-19.2-7.31a40.673,40.673,0,0,0-10.071-1.231,44.462,44.462,0,0,0-13.96,2.268,42.05,42.05,0,0,0-10.914,5.483,37.222,37.222,0,0,0-8.827,8.685,5.132,5.132,0,0,0-.4.674A5.218,5.218,0,0,0,2.162,593.852Z" transform="translate(-0.001 -517.859)" fill="#fff"/>
      <circle id="Ellipse_19" data-name="Ellipse 19" cx="18.289" cy="18.289" r="18.289" transform="translate(77.743 15.476)" fill="#fff"/>
    </g>
  </g>
</svg>
