<svg xmlns="http://www.w3.org/2000/svg" width="122" height="79.414" viewBox="0 0 122 79.414">
  <g id="web-programming" transform="translate(0 -28.224)">
    <path id="Path_40" data-name="Path 40" d="M130.045,207.214a2.006,2.006,0,0,1-1.3-.481l-13.034-11.1a2.015,2.015,0,0,1,0-3.067l13.034-11.1a2.014,2.014,0,1,1,2.611,3.066L120.121,194.1l11.232,9.565a2.015,2.015,0,0,1-1.307,3.548Zm0,0" transform="translate(-81.91 -118.912)" fill="#fff"/>
    <path id="Path_41" data-name="Path 41" d="M251.723,207.214a2.015,2.015,0,0,1-1.307-3.548l11.232-9.565-11.232-9.565a2.014,2.014,0,0,1,2.611-3.066l13.034,11.1a2.015,2.015,0,0,1,0,3.067l-13.034,11.1a2.006,2.006,0,0,1-1.3.481Zm0,0" transform="translate(-177.858 -118.912)" fill="#fff"/>
    <path id="Path_42" data-name="Path 42" d="M190.971,195.621a2.05,2.05,0,0,1-.418-.044A2.015,2.015,0,0,1,189,193.191l8.123-38.567a2.014,2.014,0,1,1,3.942.831l-8.123,38.567A2.014,2.014,0,0,1,190.971,195.621Zm0,0" transform="translate(-134.585 -98.994)" fill="#fff"/>
    <path id="Path_43" data-name="Path 43" d="M108.476,79.414H13.524C6.067,79.414,0,74.939,0,69.437V9.978C0,4.476,6.067,0,13.524,0h94.953C115.933,0,122,4.476,122,9.978V69.437C122,74.939,115.933,79.414,108.476,79.414ZM13.524,2.972c-5.235,0-9.5,3.143-9.5,7.006V69.437c0,3.863,4.26,7.006,9.5,7.006h94.953c5.235,0,9.5-3.143,9.5-7.006V9.978c0-3.863-4.26-7.006-9.5-7.006Zm0,0" transform="translate(0 28.224)" fill="#fff"/>
    <path id="Path_44" data-name="Path 44" d="M119.986,102.118H2.014a2.014,2.014,0,0,1,0-4.028H119.986a2.014,2.014,0,1,1,0,4.028Zm0,0" transform="translate(0 -57.866)" fill="#fff"/>
    <path id="Path_45" data-name="Path 45" d="M99.729,38.847a2.279,2.279,0,1,1,2.279-2.279A2.282,2.282,0,0,1,99.729,38.847Zm0-3.118a.839.839,0,1,0,.839.839A.84.84,0,0,0,99.729,35.73Zm0,0" transform="translate(-79.315 -0.787)" fill="#fff"/>
    <path id="Path_46" data-name="Path 46" d="M31.666,38.633a2.279,2.279,0,1,1,2.279-2.279A2.282,2.282,0,0,1,31.666,38.633Zm0-3.118a.839.839,0,1,0,.839.839A.84.84,0,0,0,31.666,35.515Zm0,0" transform="translate(-18.255 -0.594)" fill="#fff"/>
    <path id="Path_47" data-name="Path 47" d="M167.794,39.062a2.279,2.279,0,1,1,2.279-2.279A2.282,2.282,0,0,1,167.794,39.062Zm0-3.118a.839.839,0,1,0,.839.839A.839.839,0,0,0,167.794,35.944Zm0,0" transform="translate(-140.378 -0.98)" fill="#fff"/>
  </g>
</svg>
