<svg xmlns="http://www.w3.org/2000/svg" width="122" height="95" viewBox="0 0 122 95">
  <g id="books-stack-of-three" transform="translate(0 -36.758)">
    <g id="Group_34" data-name="Group 34" transform="translate(-0.001 36.758)">
      <path id="Path_31" data-name="Path 31" d="M113.3,65.457c-.493-3.7-.563-10.072,2.882-12.211a1.29,1.29,0,0,0,.161-.145c2.816-.9,4.765-2.16,3.235-3.856L78.031,36.758l-67.269,9.33s-7.7,1.1-7.015,13.037c.374,6.5,2.416,9.689,4.2,11.259L2.43,72.043C.9,73.74,2.847,75,5.663,75.9a1.112,1.112,0,0,0,.161.146C9.267,78.185,9.2,84.557,8.706,88.257-3.661,91.76.778,92.9.778,92.9l2.713.655c-1.908,1.72-3.8,4.982-3.448,11.168.688,11.936,7.016,12.76,7.016,12.76l44.02,14.273L117.522,115.7s4.441-1.143-7.93-4.647c-.5-3.694-.567-10.065,2.884-12.212a1.017,1.017,0,0,0,.161-.144c2.817-.9,4.764-2.159,3.234-3.855l-2.888-.87c1.926-1.159,4.819-4.187,5.272-12.052.313-5.41-1.1-8.579-2.74-10.444l5.708-1.378S125.665,68.96,113.3,65.457ZM57.72,65.3l11.173-2.291,37.759-7.741,5.626-1.154c-1.8,3.282-1.722,7.773-1.425,10.66.065.653.14,1.249.213,1.7l-6.158,1.527L57.251,79.835Zm-48,11.616,5.625,1.154,36.263,7.436,3.168.647h0l9.5,1.948.469,14.532L15.766,90.481l-4.829-1.2c.071-.454.146-1.05.214-1.7C11.447,84.695,11.524,80.2,9.725,76.92ZM7.539,58.55c-.068-3.175.5-5.472,1.646-6.639a2.992,2.992,0,0,1,2.181-.9,3.708,3.708,0,0,1,.552.043L40.9,60.479l14.461,4.7-.474,14.633L14.321,68.47l-2.141-.6a1.3,1.3,0,0,0-.268-.041C11.745,67.819,7.734,67.45,7.539,58.55Zm43.644,66.869L8.476,113.474a1.273,1.273,0,0,0-.267-.042c-.17-.011-4.183-.379-4.377-9.278-.069-3.179.5-5.474,1.645-6.642a3,3,0,0,1,2.182-.9,3.866,3.866,0,0,1,.553.042h0l43.442,14.131Zm55.963-15.039c.067.655.142,1.25.215,1.7L53.544,125.439l.47-14.532,11.506-2.36,1.7.41,6.369-2.065,29.357-6.018,5.628-1.155C106.774,103,106.848,107.495,107.146,110.379Zm2.964-19.749a1.036,1.036,0,0,0-.288.044l-4.059,1.134-38.648,10.81-.473-14.633,12.68-4.126,30.7-9.988a3.2,3.2,0,0,1,2.8.841c1.145,1.167,1.713,3.464,1.646,6.639C114.269,90.249,110.257,90.619,110.111,90.63Z" transform="translate(0.001 -36.758)" fill="#fff"/>
    </g>
  </g>
</svg>
