<svg xmlns="http://www.w3.org/2000/svg" width="123" height="87" viewBox="0 0 123 87">
  <g id="console" transform="translate(0 -55.109)">
    <g id="Group_42" data-name="Group 42" transform="translate(0 55.109)">
      <g id="Group_41" data-name="Group 41">
        <path id="Path_36" data-name="Path 36" d="M122.934,115.277a132.5,132.5,0,0,0-3.37-23.923,96.378,96.378,0,0,0-6.894-20.128C101.946,50.932,90.3,54.067,76.361,58.026A93.5,93.5,0,0,1,62.266,61H60.734a93.5,93.5,0,0,1-14.095-2.97C32.7,54.232,21.055,50.932,10.331,71.39A88.279,88.279,0,0,0,3.437,91.519a132.5,132.5,0,0,0-3.37,23.923c-.306,8.414.46,14.519,2.145,18.809q2.528,5.94,7.354,7.424a14,14,0,0,0,9.8-1.155c5.975-2.64,12.869-8.249,19.61-15.014,4.749-4.95,13.635-7.424,22.521-7.424s17.771,2.475,22.521,7.424c6.741,6.764,13.635,12.374,19.61,15.014,3.524,1.485,6.894,1.98,9.8,1.155,3.064-.99,5.668-3.3,7.354-7.589C122.475,129.961,123.241,123.856,122.934,115.277Zm-7.354,16.5c-.919,2.31-2.145,3.63-3.677,4.125-1.685.495-3.83.165-6.281-.825-5.362-2.31-11.643-7.424-17.771-13.694-5.822-6.27-16.086-9.4-26.351-9.4s-20.529,3.135-26.5,9.074c-6.281,6.27-12.563,11.549-17.771,13.694-2.451.99-4.6,1.485-6.281.825-1.532-.495-2.758-1.815-3.677-4.125-1.226-3.135-1.838-8.249-1.532-15.839A121.951,121.951,0,0,1,8.952,92.839c1.685-7.094,3.83-13.694,6.434-18.644C23.813,57.861,33.618,60.5,45.261,63.8a84.2,84.2,0,0,0,15.014,3.135h2.3A83.149,83.149,0,0,0,77.74,63.8c11.643-3.135,21.448-5.94,29.874,10.394a79.812,79.812,0,0,1,6.434,18.644,133.822,133.822,0,0,1,3.217,22.768C117.572,123.2,116.959,128.311,115.581,131.776Z" transform="translate(0 -55.109)" fill="#fff"/>
      </g>
    </g>
    <g id="Group_44" data-name="Group 44" transform="translate(15.865 72.396)">
      <g id="Group_43" data-name="Group 43">
        <path id="Path_37" data-name="Path 37" d="M72.97,105.718a9.32,9.32,0,0,0-5.522-2.607,8.728,8.728,0,0,0-2.454-5.368l-.153-.153a8.687,8.687,0,0,0-6.289-2.608,9.056,9.056,0,0,0-6.289,2.608,8.915,8.915,0,0,0-2.607,5.522,9.137,9.137,0,0,0-5.522,2.454l-.153.153a8.687,8.687,0,0,0-2.608,6.289A9.056,9.056,0,0,0,43.98,118.3a8.551,8.551,0,0,0,5.675,2.608,8.182,8.182,0,0,0,2.607,5.522,8.687,8.687,0,0,0,6.289,2.607,9.056,9.056,0,0,0,6.289-2.607,9.32,9.32,0,0,0,2.608-5.522A8.182,8.182,0,0,0,72.97,118.3a8.687,8.687,0,0,0,2.607-6.289A9.056,9.056,0,0,0,72.97,105.718Zm-3.835,8.589a3.122,3.122,0,0,1-2.3.92H64.687a2.912,2.912,0,0,0-2.914,2.914v1.994a3.221,3.221,0,1,1-6.442,0v-2.147a2.912,2.912,0,0,0-2.914-2.914H50.269a3.145,3.145,0,0,1-2.3-5.368l.153-.153a3.665,3.665,0,0,1,2.147-.767h2.147a2.912,2.912,0,0,0,2.914-2.914v-2.147a3.254,3.254,0,0,1,5.522-2.3l.153.153a3.665,3.665,0,0,1,.767,2.147v2.147a2.912,2.912,0,0,0,2.914,2.914h2.147a3.254,3.254,0,0,1,2.3,5.522Z" transform="translate(-41.373 -94.981)" fill="#fff"/>
      </g>
    </g>
    <g id="Group_46" data-name="Group 46" transform="translate(82.786 72.566)">
      <g id="Group_45" data-name="Group 45" transform="translate(0 0)">
        <circle id="Ellipse_15" data-name="Ellipse 15" cx="5.368" cy="5.368" r="5.368" fill="#fff"/>
      </g>
    </g>
    <g id="Group_48" data-name="Group 48" transform="translate(82.786 96.247)">
      <g id="Group_47" data-name="Group 47" transform="translate(0 0)">
        <circle id="Ellipse_16" data-name="Ellipse 16" cx="5.368" cy="5.368" r="5.368" fill="#fff"/>
      </g>
    </g>
    <g id="Group_50" data-name="Group 50" transform="translate(71.91 84.406)">
      <g id="Group_49" data-name="Group 49">
        <circle id="Ellipse_17" data-name="Ellipse 17" cx="5.368" cy="5.368" r="5.368" fill="#fff"/>
      </g>
    </g>
    <g id="Group_52" data-name="Group 52" transform="translate(93.662 84.406)">
      <g id="Group_51" data-name="Group 51">
        <circle id="Ellipse_18" data-name="Ellipse 18" cx="5.368" cy="5.368" r="5.368" fill="#fff"/>
      </g>
    </g>
  </g>
</svg>
