<svg xmlns="http://www.w3.org/2000/svg" width="122" height="95" viewBox="0 0 122 95">
  <g id="headphones" transform="translate(0 -31)">
    <g id="Group_36" data-name="Group 36" transform="translate(0 31)">
      <g id="Group_35" data-name="Group 35">
        <path id="Path_33" data-name="Path 33" d="M61,31C27.5,31,0,54.927,0,84.338v25.1c0,5.19,4.81,9.413,10.723,9.413H14.3V87.476H10.723a11.916,11.916,0,0,0-3.574.578V84.338C7.148,58.386,31.436,37.275,61,37.275s53.852,21.111,53.852,47.063v3.715a11.916,11.916,0,0,0-3.574-.578H107.7v31.376h3.574c5.913,0,10.723-4.222,10.723-9.413v-25.1C122,54.927,94.5,31,61,31Z" transform="translate(0 -31)" fill="#fff"/>
      </g>
    </g>
    <g id="Group_38" data-name="Group 38" transform="translate(21.445 75.961)">
      <g id="Group_37" data-name="Group 37">
        <path id="Path_34" data-name="Path 34" d="M100.723,271H97.148A7.148,7.148,0,0,0,90,278.148v35.742a7.148,7.148,0,0,0,7.148,7.148h3.574a3.574,3.574,0,0,0,3.574-3.574V274.574A3.574,3.574,0,0,0,100.723,271Z" transform="translate(-90 -271)" fill="#fff"/>
      </g>
    </g>
    <g id="Group_40" data-name="Group 40" transform="translate(86.258 75.961)">
      <g id="Group_39" data-name="Group 39">
        <path id="Path_35" data-name="Path 35" d="M369.148,271h-3.574A3.574,3.574,0,0,0,362,274.574v42.891a3.574,3.574,0,0,0,3.574,3.574h3.574a7.148,7.148,0,0,0,7.148-7.148V278.148A7.148,7.148,0,0,0,369.148,271Z" transform="translate(-362 -271)" fill="#fff"/>
      </g>
    </g>
  </g>
</svg>
