<svg xmlns="http://www.w3.org/2000/svg" width="70" height="70" viewBox="0 0 70 70">
  <g id="github-logo" transform="translate(0 -5.365)">
    <path id="Path_25" data-name="Path 25" d="M65.3,23.234A35.3,35.3,0,0,0,52.568,10.177,33.593,33.593,0,0,0,35,5.365a33.6,33.6,0,0,0-17.568,4.812A35.293,35.293,0,0,0,4.694,23.234,35.773,35.773,0,0,0,0,41.241,35.458,35.458,0,0,0,6.676,62.333,34.345,34.345,0,0,0,23.925,75.3a2,2,0,0,0,1.823-.327,1.848,1.848,0,0,0,.592-1.4q0-.14-.023-2.523t-.023-4.157l-1.048.186a13.05,13.05,0,0,1-2.529.164,18.816,18.816,0,0,1-3.167-.327,7,7,0,0,1-3.053-1.4,5.925,5.925,0,0,1-2-2.873l-.456-1.075A11.729,11.729,0,0,0,12.6,59.182a5.54,5.54,0,0,0-1.982-1.775l-.319-.234a3.379,3.379,0,0,1-.592-.561,2.572,2.572,0,0,1-.41-.654q-.137-.328.228-.538a2.891,2.891,0,0,1,1.322-.209l.911.14a6.582,6.582,0,0,1,2.256,1.121,7.469,7.469,0,0,1,2.21,2.428,8.17,8.17,0,0,0,2.529,2.92,5.277,5.277,0,0,0,2.985,1,12.652,12.652,0,0,0,2.6-.233,8.911,8.911,0,0,0,2.051-.7,7.644,7.644,0,0,1,2.233-4.812,30.514,30.514,0,0,1-4.671-.841,18.348,18.348,0,0,1-4.283-1.823,12.346,12.346,0,0,1-3.669-3.129A15.187,15.187,0,0,1,13.6,46.379a23.871,23.871,0,0,1-.934-7.007,13.818,13.818,0,0,1,3.6-9.624,12.849,12.849,0,0,1,.319-9.529q1.322-.421,3.919.63a27.1,27.1,0,0,1,3.805,1.8q1.208.746,1.937,1.261a32.137,32.137,0,0,1,17.5,0l1.732-1.121a24.27,24.27,0,0,1,4.192-2.056,5.839,5.839,0,0,1,3.693-.513q2.05,5.279.364,9.529a13.82,13.82,0,0,1,3.6,9.624A24.138,24.138,0,0,1,56.4,46.4a14.594,14.594,0,0,1-2.414,4.905,12.814,12.814,0,0,1-3.692,3.107,18.383,18.383,0,0,1-4.284,1.822,30.482,30.482,0,0,1-4.671.842q2.369,2.1,2.369,6.633v9.856a1.884,1.884,0,0,0,.57,1.4,1.942,1.942,0,0,0,1.8.326,34.34,34.34,0,0,0,17.25-12.963A35.465,35.465,0,0,0,70,41.24,35.8,35.8,0,0,0,65.3,23.234Z" transform="translate(0 0)" fill="#fff"/>
  </g>
</svg>
