<svg id="closed-envelope-circle" xmlns="http://www.w3.org/2000/svg" width="70" height="70" viewBox="0 0 70 70">
  <g id="Group_10" data-name="Group 10">
    <path id="Path_24" data-name="Path 24" d="M35,70a34.223,34.223,0,0,1-9.31-1.26,35.505,35.505,0,0,1-8.365-3.535A35.046,35.046,0,0,1,4.8,52.675,35.494,35.494,0,0,1,1.26,44.31a35.025,35.025,0,0,1,0-18.62A35.491,35.491,0,0,1,4.8,17.325,35.046,35.046,0,0,1,17.325,4.8,35.491,35.491,0,0,1,25.69,1.26a34.952,34.952,0,0,1,22.925,1.5,34.962,34.962,0,0,1,18.62,18.62A34.952,34.952,0,0,1,68.74,44.31a35.517,35.517,0,0,1-3.535,8.365,35.046,35.046,0,0,1-12.53,12.53A35.493,35.493,0,0,1,44.31,68.74,34.22,34.22,0,0,1,35,70ZM51.87,20.58H18.69a1.212,1.212,0,0,0-.84.315,1.117,1.117,0,0,0-.35.875v3.71q0,.28.21.28L35.14,35.7l.14.07a.286.286,0,0,0,.21-.07l16.87-9.94a.536.536,0,0,1,.21-.07.539.539,0,0,0,.21-.07.247.247,0,0,0,.28-.28V21.77a1.116,1.116,0,0,0-.35-.875A1.213,1.213,0,0,0,51.87,20.58ZM28.07,35.49a.285.285,0,0,0,.07-.21c0-.14-.047-.21-.14-.21L17.99,29.33a.451.451,0,0,0-.35,0q-.14,0-.14.21V44.59a.274.274,0,0,0,.21.28h.14q.14,0,.14-.07Zm12.18,1.12q-.07-.211-.35-.07l-3.85,2.24a1.391,1.391,0,0,1-1.47,0l-3.36-1.89q-.21-.14-.35,0L18.06,48.79a.4.4,0,0,0-.07.28q0,.07.14.21a2.3,2.3,0,0,0,.56.14H51.52a.4.4,0,0,0,.28-.14.554.554,0,0,0-.07-.35Zm12.6-7.56h-.28l-9.52,5.67c-.093,0-.14.07-.14.21q-.07.07.07.21L52.5,45.43c.093.093.163.14.21.14h.14c.14-.14.21-.233.21-.28V29.33Q53.06,29.19,52.85,29.05Z" fill="#fff"/>
  </g>
</svg>
